<?xml version="1.0" encoding="iso-8859-1"?>
<!-- Generator: Adobe Illustrator 16.0.0, SVG Export Plug-In . SVG Version: 6.00 Build 0)  -->
<!DOCTYPE svg PUBLIC "-//W3C//DTD SVG 1.1//EN" "http://www.w3.org/Graphics/SVG/1.1/DTD/svg11.dtd">
<svg version="1.1" id="Capa_1" xmlns="http://www.w3.org/2000/svg" xmlns:xlink="http://www.w3.org/1999/xlink" x="0px" y="0px"
	 width="46px" height="46px" viewBox="0 0 46 46" style="enable-background:new 0 0 46 46;" xml:space="preserve">
<g>
	<g id="Link_x2F_Connection">
		<g>
			<path d="M18,28v-5c0-0.553,0.447-1,1-1h6c0.553,0,1-0.447,1-1v-1c0-0.553-0.447-1-1-1h-8c-1.104,0-2,0.896-2,2v9
				c0,1.104,0.896,2,2,2h7c1.104,0,2-0.896,2-2v-1h-7C18.447,29,18,28.553,18,28z M29,14h-7c-1.104,0-2,0.896-2,2v1h7
				c0.553,0,1,0.447,1,1v5c0,0.553-0.447,1-1,1h-6c-0.553,0-1-0.447-1-1v3c0,0.553,0.447,1,1,1h8c1.104,0,2-0.896,2-2v-9
				C31,14.896,30.104,14,29,14z M23,0C10.298,0,0,10.298,0,23s10.298,23,23,23s23-10.298,23-23S35.702,0,23,0z M23,42
				C12.507,42,4,33.493,4,23S12.507,4,23,4s19,8.507,19,19S33.493,42,23,42z"/>
		</g>
	</g>
</g>
<g>
</g>
<g>
</g>
<g>
</g>
<g>
</g>
<g>
</g>
<g>
</g>
<g>
</g>
<g>
</g>
<g>
</g>
<g>
</g>
<g>
</g>
<g>
</g>
<g>
</g>
<g>
</g>
<g>
</g>
</svg>
