<svg version="1" viewBox="0 0 300 249">
  <path d="M244.6 5.2c-6.4 9.7-14.6 41.9-16 62.2-.4 5.6-.6 6-3.7 7.3-3.6 1.5-10.3 1.3-19.3-.6-5.5-1.2-7.9-.5-5.1 1.6 1.1.7 4.4 1.3 7.4 1.3 4 0 6.3.6 8.1 2 2.3 1.7 2.5 2.5 2.4 8.7-.3 9.2-3.3 17-9 22.9l-4.5 4.6-5.9-.4c-10.7-.8-12.2-4.7-7-18.1 3.7-9.5 5.2-20.7 2.7-20.7-3.1 0-6.4 9.4-7.3 21-.8 8.7-1.2 9.8-6.6 15.6l-4.1 4.4h-8.2c-7.7 0-8.5-.2-11.3-2.8-2.8-2.6-3-3.3-3.1-10.7-.2-10.2 1.9-17.1 7.6-25.7 5.4-8.2 7.5-9.8 13-9.8 4.1 0 4.3.1 3.7 2.5-.4 1.5-.2 2.5.5 2.5.6 0 1.1-1.3 1.1-2.9 0-3.5-2.3-4.6-7.9-3.6-4.2.7-6.8 3.1-12.1 10.9-5 7.5-7 13.7-7.1 22.2-.1 4.9-.5 7.4-1.2 7.4s-2.2.3-3.4.6c-1.9.5-2.2 0-3.3-5.3-.6-3.2-2.5-11.8-4.1-19.1-1.6-7.3-2.9-14.8-2.9-16.7 0-4.7-1.6-4.5-2.4.2-.9 5.6-10 28.4-15.7 39.4-6.9 13.1-11.7 19.3-15.3 19.7l-2.9.4.6-16.9c.4-11.6 1.2-19.7 2.6-26.2 2.2-9.9 2.6-14.1 1.3-14.1-.4 0-1.6 3.9-2.5 8.7-3 14.2-10 32.3-15.7 40.3-2.8 3.9-6.7 4.1-7.6.4-1.4-5.5.3-26.7 3-37.4 3.1-12.3 4.5-25 2.7-25-2.7 0-9.2 13.1-17.3 35-4.6 12.3-4.4 11 .7-6 3.4-11.2 3.8-13.7 3.9-24.5.1-11.6 0-12-2.1-12.3-4.5-.7-13.6 6.1-18.5 13.7-2.9 4.7-3.4 6.1-1.9 6.1.5 0 1.4-1.4 2.2-3.1 2.7-6.6 12-14.9 16.7-14.9h2.4l-.4 11.7c-.4 11-.9 13.5-7.5 36.8-7.9 27.7-9 32.5-7.5 32.5.5 0 1.3-2.1 1.7-4.7.6-3.9 7.7-24.5 15.7-45.3 2.7-6.9 9.6-21.2 11-22.5 1.4-1.4.1 7.7-2.8 20-3 12.3-4.8 29.8-3.9 37.1.5 4.5 1.1 5.7 3 6.6 4.9 2.2 9.1-3.1 16.7-21.2 2.2-5.2 3.7-8.4 3.3-7-.3 1.4-.9 8.9-1.2 16.7-.6 15.2-.1 17.3 4 17.3 3.2 0 9.7-7.7 15.3-18 4.9-8.9 16.3-36 16.5-39.1.1-1.9 1.4 3.5 5.4 22.3l3.3 15.7-4.5 2.2c-19.9 9.6-40.6 30.6-44.7 45.2-3.7 13-2.4 33 2.5 40.2 3.9 5.7 7.2 7 17.2 6.8 7.3-.1 9.7-.5 14.2-2.8 9.8-4.7 16.4-15 19.2-29.8 1.8-9.7 1.2-38.9-1.1-52.2-.8-4.4-1.1-8.3-.7-8.6.3-.4 1.8-.9 3.4-1.3 2.4-.6 2.7-.3 2.7 1.7 0 5.2 6.8 8.7 16.8 8.7h6.6l6-6.3c3.3-3.4 5.7-5.6 5.2-5-.8 1.4 1 5.2 3.3 7 .9.7 4.6 1.3 8.3 1.3 6.1 0 7.1-.3 10.2-3.1 5.6-4.9 10-14.9 10.5-23.6.2-5.5-.1-7.9-1.2-9.7-1.6-2.4-1.6-2.4 2.6-2.8 2.3-.3 4.9-.8 5.7-1.1 1.3-.6 1.5.6 1.6 7.5.1 12.2 3.4 17.3 12.2 18.7 3.7.6 12.6-.1 17-1.5 1.6-.5 2.2-.2 2.2.9 0 2.9 9.7 10.3 17 13.1 3.9 1.4 7.6 2.6 8.3 2.6 2 0-.7-1.7-4.8-3-6.9-2.2-13.1-5.7-16.3-9.5-1.8-2-3.2-4.1-3.2-4.6 0-.6 2.4-3.5 5.4-6.5 8.9-8.9 15.6-24.2 15.6-35.5 0-5.8-1.8-7.9-6.7-7.9-5.1 0-10.1 5.5-13.8 15.1-2.5 6.5-2.9 8.9-3.1 20.4l-.3 13-4.3 1.2c-6.3 1.7-12.8 1.5-16.8-.5-5.1-2.5-7-7-7-16.9v-8.2l4.9-5c5.4-5.6 12-18.1 14.7-28.1 1.3-4.8 1.8-10.6 1.8-22l.1-15.5-2.7-.3c-1.9-.2-3.1.3-4.2 2zm5.8 11.9c-.1 7.3-.8 15.7-1.8 20.4-2 9.8-9 24.3-14.6 30.5l-4.1 4.5.6-7.9c1.6-20.3 10.3-52.8 15.7-58.6 3.6-3.9 4.3-2.1 4.2 11.1zm29.4 41.7c.5 11.1-5.8 25.2-15.5 34.5l-4 3.8-.6-4.8c-.7-6.1.7-19.6 2.6-24.9 4.2-11.6 7.9-15.7 13.7-15.2l3.5.3.3 6.3zm-72.5 16.9c-.7.2-2.1.2-3 0-1-.3-.4-.5 1.2-.5 1.7 0 2.4.2 1.8.5zm-13 6.5c-.3 2.4-1.6 7.4-2.9 11.3l-2.4 7 .4-6c.5-6.6 3.2-16.5 4.5-16.5.5 0 .7 1.9.4 4.2zM145 111.7c0 .5.7 5.3 1.5 10.8 2 13.6 2 42.5 0 51.3-4.5 19.6-16.9 29.4-35.4 27.9-5.9-.5-6.9-.9-9.7-4-4.1-4.5-5.4-8.9-6.1-20.7-.6-11.2.6-19 4.2-26.2 6.1-12.3 20.5-26.5 35.6-35.1 8.5-4.8 9.9-5.3 9.9-4z"/>
</svg>
