<svg version="1" viewBox="0 0 300 228">
  <path d="M238.1 6.6c-3.95 5.05-6.6 14.9-19.05 70.55-2.5 11.15-2.1 10.8-14.05 11.9-11.65 1.05-18.15-1-17.85-5.6.45-6.5-3.3-7.3-8.2-1.7-6.55 7.4-14.95 29.65-14.95 39.5 0 13.8-26.8 24.3-32.9 12.9-7.35-13.7 11.7-54.15 25.45-54.15h3.7l-.7 10.05c-.85 12 .7 15.6 4.9 11.4 1.9-1.9 2.2-20.2.45-25.3-3.3-9.45-19.4-2-30.05 13.9-2 3-6.45 9.7-9.85 14.95l-6.2 9.5.65-7.5c.35-4.15 2-13.25 3.7-20.3 3.25-13.55 3.2-16.05-.35-15.5-1.75.25-2.75 2-5.35 9.5-8.2 23.8-23.7 48.8-34.35 55.5l-3.1 2v-4.35c0-8.75 3.05-24.25 7.55-38.35 5.05-15.95 5.4-20 1.55-20-2.55 0-4.05 3.8-10.2 25.5-3.45 12.1-13.1 30.1-19.35 35.95l-2.55 2.4v-3.45c0-8.3 2.55-22.8 7.1-40.6 8.3-32.45 5.05-42.65-7.6-23.8l-4 6-.5-9c-.65-11.35-.75-11.5-8.2-11.5-11.05 0-28.2 16.1-22.3 21 1.95 1.6 4.3.65 5.4-2.2C28.65 71.15 38.55 63 42.45 63H46v12.05c0 11.05-.2 12.45-2.45 16.3-2.5 4.2-17.2 36.2-20.6 44.8-2.2 5.45-.75 9.35 2.7 7.25 2.35-1.4 15.8-27.95 21.6-42.6C51.8 89.25 62 71.55 62.8 73.9c.2.65-1.45 8-3.65 16.4-7.3 27.25-10.3 49.4-7.2 53.15 3.85 4.6 10.65.95 17.55-9.5 2.55-3.8 4.75-6.95 4.85-6.95.1 0 .05 3.05-.15 6.85-1.15 20 19.7 7.9 34.9-20.35 5.05-9.3 5.05-9.25 3.8 2.85-.9 8.85-1.45 10.6-5.95 19.05-18.35 34.4-26.65 97.15-11.5 87.25 8.75-5.75 18.2-41.8 21.55-82.45.85-10.25 1.45-13.15 3.75-17.5l2.75-5.2.5 9.05c.6 10.65 2.15 13.7 8.35 16.5 8.65 3.95 20.35 2.1 27.25-4.25 2.7-2.5 4.4-3.5 4.4-2.6 0 4.85 11.3 6.65 17.5 2.8 9.3-5.75 16.75-20.4 17.3-34.1l.4-9.65 4.15.15c2.3.05 5.9-.25 8.05-.7l3.85-.85-.75 2.85c-5.2 19.8-7.05 40.6-3.95 43.75 4.75 4.7 16 .4 26.15-10.1l7.35-7.55 2.1 2.65c7.55 9.6 42.25 10.2 43.65.7.45-3.05-2.15-3.7-6.55-1.6-16.1 7.7-39.85-.95-32.45-11.8 18.55-27.2 28.6-54.75 20-54.75-13.45 0-28.8 25.8-28.8 48.45v9.2l-7.65 8.25C222.1 137.1 215 139.6 215 130.75c0-10.7 6.2-39.75 8.75-41.1 8.15-4.25 18.4-20.35 22.4-35.15 3.1-11.35 4-45.6 1.3-48.55-2.55-2.8-6.9-2.5-9.35.65zm2.95 42.1c-2.1 10.45-7.65 23-12.95 29.3-3.45 4.1-4.45 3.75-3.05-1.05.55-1.9 3.75-15.4 7.1-29.95 3.35-14.6 7.05-29 8.2-32l2.15-5.5.3 14.7c.2 11.6-.15 16.8-1.75 24.5zM268 66.1c0 3.45-18.4 39.85-20.15 39.9-2.3.05 3.45-20.4 7.85-27.95C260.2 70.4 268 62.8 268 66.1zm-89.9 32c-2.85 8.15-6.1 15.25-6.7 14.65-.65-.65 3.1-11.9 5.75-17.05 2.75-5.35 3.25-4.15.95 2.4zm13.75-2.5c5.6 1.75-1.4 25.75-10.2 34.9-8.3 8.65-16.55 3.25-9.75-6.35 3.1-4.4 9.75-18.3 11.65-24.4 1.9-6 2.1-6.1 8.3-4.15zm-81.75 55.1c-3.6 28.55-9.1 52-14.45 61.95-1.5 2.75-1.55 2.5-1.6-6.8-.05-14.7 4.6-35 13.1-57.1 3.75-9.75 4.35-9.35 2.95 1.95z"/>
</svg>
